:version 1.10
:name ASF
:units
  mass 1
  length 1
  angle deg
:documentation
  ASF file generated by Kaydara
:root
  axis xyz
  order  tx ty tz rx ry rz
  position 0 0 0
  orientation 0 0 0
:bonedata
  begin
    id 1
    name RightUpLegDummy
    direction -0.718183 -0.695806 0.00816078
    length 4.904
    axis 0 0 0 xyz
  end
  begin
    id 2
    name RightUpLeg
    direction -0.0736652 -0.994202 0.0783343
    length 17.4976
    axis -2.72909 -3.00389 -4.00133 xyz
    dof rx ry rz
  end
  begin
    id 3
    name RightLeg
    direction -0.0389037 -0.994596 -0.0962598
    length 16.5821
    axis 3.95836 -18.5909 -4.46993 xyz
    dof rx ry rz
  end
  begin
    id 4
    name RightFoot
    direction -0.311643 -0.412678 0.855906
    length 3.77069
    axis -1.99483 -18.8351 -3.27644 xyz
    dof rx ry rz
  end
  begin
    id 5
    name RightToes
    direction -0.317852 0.0389852 0.947339
    length 3.85082
    axis -2.00228 -18.1713 -3.25211 xyz
    dof rx ry rz
  end
  begin
    id 6
    name SpineDummy
    direction 8.3039e-015 1 4.44677e-016
    length 4.6813
    axis 0 0 0 xyz
  end
  begin
    id 7
    name Spine
    direction -0.000262373 0.999988 0.00493267
    length 10.1015
    axis -0.00246081 0.00062579 0.0150362 xyz
    dof rx ry rz
  end
  begin
    id 8
    name Spine1
    direction 0 0 0
    length 0
    axis -0.00349562 0.000650293 0.0196666 xyz
    dof rx ry rz
  end
  begin
    id 9
    name HEadDummy
    direction -0.000343232 0.999999 0.00123745
    length 3.43865
    axis -0.00349562 0.000650293 0.0196666 xyz
  end
  begin
    id 10
    name HEad
    direction -0.0461221 0.980933 0.188796
    length 5.12695
    axis -0.00351404 -7.04812 0.0199272 xyz
    dof rx ry rz
  end
  begin
    id 11
    name LeftShoulder1Dummy
    direction 0.998904 -0.0399089 -0.0244534
    length 3.5433
    axis -0.00349562 0.000650293 0.0196666 xyz
  end
  begin
    id 12
    name LeftShoulder1
    direction 0.99951 1.64443e-005 0.0312999
    length 4.05031
    axis -0.00349562 0.000650293 0.0196666 xyz
    dof rx ry rz
  end
  begin
    id 13
    name LeftArm
    direction 0.984791 0.0515299 0.165927
    length 12.9126
    axis -64.823 -10.7743 5.20463 xyz
    dof rx ry rz
  end
  begin
    id 14
    name LeftForeArm
    direction 0.984968 0.0534808 0.16425
    length 10.8596
    axis -30.0462 -7.70601 1.87451 xyz
    dof rx ry rz
  end
  begin
    id 15
    name LeftHand
    direction 0.975871 0.0289682 0.216418
    length 6.62295
    axis -20.1348 -6.98077 1.86072 xyz
    dof rx ry rz
  end
  begin
    id 16
    name RightShoulderDummy
    direction -0.998877 -0.0405946 -0.0244307
    length 3.5433
    axis -0.00349562 0.000650293 0.0196666 xyz
  end
  begin
    id 17
    name RightShoulder
    direction -0.998933 -0.0249743 -0.0388558
    length 4.05031
    axis -0.0205316 -4.02113 1.41395 xyz
    dof rx ry rz
  end
  begin
    id 18
    name RightArm
    direction -0.997559 0.068664 0.0127103
    length 12.9638
    axis -67.3882 1.84188 -6.15987 xyz
    dof rx ry rz
  end
  begin
    id 19
    name RightForeArm
    direction -0.991508 0.0912848 0.0926241
    length 10.8312
    axis -22.1975 3.41087 -4.28711 xyz
    dof rx ry rz
  end
  begin
    id 20
    name RightHand
    direction -0.989262 0.0600788 0.133232
    length 6.57864
    axis -12.2911 2.17515 -4.39675 xyz
    dof rx ry rz
  end
  begin
    id 21
    name LeftUpLegDummy
    direction 0.718183 -0.695806 0.00816078
    length 4.904
    axis 0 0 0 xyz
  end
  begin
    id 22
    name LeftUpLeg
    direction 0.0831398 -0.99469 0.0606531
    length 17.4976
    axis -1.71016 2.29552 4.63832 xyz
    dof rx ry rz
  end
  begin
    id 23
    name LeftLeg
    direction 0.0498442 -0.991778 -0.117862
    length 16.5821
    axis 5.13757 15.5727 5.13348 xyz
    dof rx ry rz
  end
  begin
    id 24
    name LeftFoot
    direction 0.269026 -0.433896 0.85986
    length 3.77069
    axis -0.576502 15.6961 4.10267 xyz
    dof rx ry rz
  end
  begin
    id 25
    name LeftToes
    direction 0.277311 0.0251143 0.960452
    length 3.85048
    axis -0.576502 15.6961 4.10267 xyz
    dof rx ry rz
  end
:hierarchy
  begin
    root RightUpLegDummy SpineDummy LeftUpLegDummy
    RightUpLegDummy RightUpLeg
    RightUpLeg RightLeg
    RightLeg RightFoot
    RightFoot RightToes
    SpineDummy Spine
    Spine Spine1
    Spine1 HEadDummy LeftShoulder1Dummy RightShoulderDummy
    HEadDummy HEad
    LeftShoulder1Dummy LeftShoulder1
    LeftShoulder1 LeftArm
    LeftArm LeftForeArm
    LeftForeArm LeftHand
    RightShoulderDummy RightShoulder
    RightShoulder RightArm
    RightArm RightForeArm
    RightForeArm RightHand
    LeftUpLegDummy LeftUpLeg
    LeftUpLeg LeftLeg
    LeftLeg LeftFoot
    LeftFoot LeftToes
  end

:SAMPLES-PER-SECOND 30
:FULLY-SPECIFIED
:DEGREES
107
root  -0.732309 18.0642 -67.2737 42.1379 14.7258 -1.2303
RightUpLeg  -67.6911 -12.7423 31.5036
RightLeg  118.883 36.5716 -29.7349
RightFoot  -41.9891 5.11181 19.1904
RightToes  5.82077e-011 -3.18055e-015 -2.98177e-016
Spine  38.1887 -3.6374 6.17873
Spine1  4.37815 -2.77747 7.59787
HEad  -16.1521 -3.18886 6.90547
LeftShoulder1  -3.88251e-019 9.70628e-020 -3.87848e-018
LeftArm  -11.5031 -0.720993 -65.315
LeftForeArm  22.0425 -2.59231 -5.32408
LeftHand  -13.7194 -11.1349 81.9718
RightShoulder  4.17216 9.06893 19.9285
RightArm  5.42808 20.3874 70.5014
RightForeArm  8.38241 5.65682 -3.91393
RightHand  -11.0094 9.35315 -74.0675
LeftUpLeg  -46.13 -7.38335 27.5032
LeftLeg  115.23 -10.1792 -6.25502
LeftFoot  -40.5114 -8.34567 -32.8602
LeftToes  9.37148e-011 4.50685e-012 -4.11107e-011
108
root  -0.665223 18.0735 -67.3206 41.9109 14.8609 -1.28482
RightUpLeg  -67.6109 -12.9945 31.4771
RightLeg  118.703 36.6934 -30.0144
RightFoot  -41.9643 5.09955 19.1613
RightToes  5.82077e-011 -3.18055e-015 -2.98177e-016
Spine  38.2148 -3.62895 6.26701
Spine1  4.71173 -2.78126 7.77957
HEad  -16.2861 -3.10807 6.98574
LeftShoulder1  -3.88251e-019 9.70628e-020 -3.87848e-018
LeftArm  -11.475 -0.943112 -65.4488
LeftForeArm  21.7023 -2.91511 -5.38672
LeftHand  -13.6634 -10.9689 82.3283
RightShoulder  4.209 9.08894 20.1152
RightArm  5.54013 20.7939 70.1784
RightForeArm  8.41778 5.68771 -3.93004
RightHand  -11.0394 9.41857 -73.9749
LeftUpLeg  -46.077 -7.61559 27.4404
LeftLeg  115.425 -10.1297 -6.29793
LeftFoot  -40.6893 -8.34034 -32.6301
LeftToes  9.37148e-011 4.50685e-012 -4.11107e-011
109
root  -0.604159 18.0954 -67.3719 41.7337 15.0003 -1.22484
RightUpLeg  -67.5741 -13.2102 31.1399
RightLeg  118.952 36.5773 -29.6851
RightFoot  -41.9715 5.08024 19.0829
RightToes  5.82077e-011 -3.18055e-015 -2.98177e-016
Spine  38.3698 -3.75432 6.50233
Spine1  4.75255 -2.77516 7.58192
HEad  -16.2953 -3.22412 7.19929
LeftShoulder1  -3.88251e-019 9.70628e-020 -3.87848e-018
LeftArm  -11.3452 -1.10015 -65.5829
LeftForeArm  21.8547 -3.26912 -5.44763
LeftHand  -13.8343 -11.0725 82.6711
RightShoulder  4.27005 9.13825 20.3951
RightArm  5.53548 20.9944 69.7148
RightForeArm  8.41225 5.7916 -3.97797
RightHand  -11.0806 9.48382 -73.9398
LeftUpLeg  -46.1874 -7.9657 27.2992
LeftLeg  115.625 -10.1058 -6.28614
LeftFoot  -40.7801 -8.26139 -32.2271
LeftToes  9.37148e-011 4.50685e-012 -4.11107e-011
110
root  -0.571271 18.1206 -67.4082 41.5308 14.9675 -1.29588
RightUpLeg  -67.4725 -13.1314 30.7659
RightLeg  119.372 36.3404 -29.0893
RightFoot  -41.8813 5.05395 19.0455
RightToes  5.82077e-011 -3.18055e-015 -2.98177e-016
Spine  38.611 -3.76897 6.6305
Spine1  4.6478 -2.64698 7.29284
HEad  -16.1935 -3.34256 7.39414
LeftShoulder1  -3.88251e-019 9.70628e-020 -3.87848e-018
LeftArm  -11.2104 -1.22641 -65.7075
LeftForeArm  22.3341 -3.41114 -5.5083
LeftHand  -14.1403 -11.3604 82.9106
RightShoulder  4.30951 9.18572 20.5477
RightArm  5.4581 21.0301 69.3563
RightForeArm  8.30533 5.85831 -4.02406
RightHand  -11.0726 9.49111 -73.8727
LeftUpLeg  -46.125 -8.12142 27.2132
LeftLeg  115.741 -10.1041 -6.25471
LeftFoot  -40.8254 -8.18172 -31.8754
LeftToes  9.37148e-011 4.50685e-012 -4.11107e-011
111
root  -0.560066 18.1351 -67.4173 41.259 14.833 -1.55246
RightUpLeg  -67.1772 -12.8757 30.5047
RightLeg  119.794 36.0585 -28.4496
RightFoot  -41.7927 5.02388 18.9922
RightToes  5.82077e-011 -3.18055e-015 -2.98177e-016
Spine  38.7746 -3.60876 6.60395
Spine1  4.72685 -2.43385 7.21454
HEad  -16.0867 -3.34144 7.39765
LeftShoulder1  -3.88251e-019 9.70628e-020 -3.87848e-018
LeftArm  -11.2173 -1.38719 -65.8307
LeftForeArm  22.6804 -3.38105 -5.54047
LeftHand  -14.3379 -11.5522 83.0401
RightShoulder  4.28407 9.19103 20.3865
RightArm  5.38625 21.0286 69.189
RightForeArm  8.0754 5.91266 -4.06247
RightHand  -11.021 9.45418 -73.7504
LeftUpLeg  -45.7883 -8.04608 27.2864
LeftLeg  115.766 -10.089 -6.27816
LeftFoot  -40.83 -8.17904 -31.8602
LeftToes  9.37148e-011 4.50685e-012 -4.11107e-011
112
root  -0.551434 18.1331 -67.4202 41.0222 14.7735 -1.74106
RightUpLeg  -66.8507 -12.7634 30.2932
RightLeg  120.211 35.8008 -27.8453
RightFoot  -41.8769 4.98497 18.7857
RightToes  5.82077e-011 -3.18055e-015 -2.98177e-016
Spine  38.8915 -3.43965 6.53444
Spine1  4.83795 -2.27471 7.32055
HEad  -15.9701 -3.32924 7.23834
LeftShoulder1  -3.88251e-019 9.70628e-020 -3.87848e-018
LeftArm  -11.3278 -1.51655 -65.9698
LeftForeArm  22.8056 -3.3824 -5.54266
LeftHand  -14.3408 -11.5616 83.0191
RightShoulder  4.21962 9.14356 20.0838
RightArm  5.33952 21.0073 69.0712
RightForeArm  7.83001 5.99121 -4.08439
RightHand  -10.9733 9.42157 -73.6312
LeftUpLeg  -45.4961 -7.99966 27.3947
LeftLeg  115.804 -10.0528 -6.33997
LeftFoot  -40.8138 -8.20558 -31.9784
LeftToes  9.37148e-011 4.50685e-012 -4.11107e-011
113
root  -0.542364 18.1245 -67.4393 40.8968 14.7691 -1.73501
RightUpLeg  -66.7212 -12.8173 30.0895
RightLeg  120.563 35.6534 -27.4142
RightFoot  -42.04 4.93938 18.501
RightToes  5.82077e-011 -3.18055e-015 -2.98177e-016
Spine  39.1285 -3.36076 6.45177
Spine1  4.64385 -2.2059 7.41202
HEad  -15.7851 -3.39273 7.05337
LeftShoulder1  -3.88251e-019 9.70628e-020 -3.87848e-018
LeftArm  -11.3777 -1.50496 -66.0695
LeftForeArm  22.8893 -3.50271 -5.55734
LeftHand  -14.2589 -11.5096 82.8698
RightShoulder  4.18007 9.07907 19.9585
RightArm  5.32253 20.9725 68.9351
RightForeArm  7.71341 5.98979 -4.04899
RightHand  -10.966 9.42498 -73.5819
LeftUpLeg  -45.4193 -8.0661 27.3664
LeftLeg  115.895 -10.0338 -6.35104
LeftFoot  -40.8434 -8.18743 -31.8764
LeftToes  9.37148e-011 4.50685e-012 -4.11107e-011
114
root  -0.541468 18.1194 -67.4662 40.8376 14.6936 -1.70859
RightUpLeg  -66.7724 -12.8147 30.0014
RightLeg  120.712 35.6585 -27.3055
RightFoot  -42.0419 4.92102 18.4303
RightToes  5.82077e-011 -3.18055e-015 -2.98177e-016
Spine  39.4688 -3.30533 6.30843
Spine1  4.22904 -2.16221 7.45088
HEad  -15.5968 -3.42077 6.9408
LeftShoulder1  -3.88251e-019 9.70628e-020 -3.87848e-018
LeftArm  -11.2996 -1.37358 -66.0241
LeftForeArm  22.9159 -3.67263 -5.61854
LeftHand  -14.1913 -11.4763 82.7127
RightShoulder  4.18195 9.04538 20.0284
RightArm  5.33356 20.9664 68.89
RightForeArm  7.73274 5.86466 -3.97153
RightHand  -10.9945 9.45674 -73.6077
LeftUpLeg  -45.3716 -8.05505 27.2592
LeftLeg  115.965 -10.0404 -6.31633
LeftFoot  -40.9395 -8.17126 -31.7061
LeftToes  9.37148e-011 4.50685e-012 -4.11107e-011
115
root  -0.544955 18.115 -67.4849 40.7981 14.6018 -1.71319
RightUpLeg  -66.8513 -12.7906 30.0227
RightLeg  120.703 35.7497 -27.4096
RightFoot  -41.9011 4.95853 18.6681
RightToes  5.82077e-011 -3.18055e-015 -2.98177e-016
Spine  39.7546 -3.26612 6.13242
Spine1  3.90799 -2.16216 7.51631
HEad  -15.5319 -3.33212 6.94958
LeftShoulder1  -3.88251e-019 9.70628e-020 -3.87848e-018
LeftArm  -11.1754 -1.25901 -65.8433
LeftForeArm  22.7882 -3.80823 -5.69961
LeftHand  -14.1402 -11.4434 82.6203
RightShoulder  4.19205 9.04923 20.0826
RightArm  5.35482 20.9845 68.959
RightForeArm  7.72181 5.77315 -3.92238
RightHand  -11.0137 9.46816 -73.6621
LeftUpLeg  -45.2817 -7.97865 27.1868
LeftLeg  115.989 -10.0366 -6.31688
LeftFoot  -41.0342 -8.21749 -31.7715
LeftToes  9.37148e-011 4.50685e-012 -4.11107e-011
116
root  -0.537599 18.1068 -67.5013 40.7879 14.6915 -1.53625
RightUpLeg  -66.917 -13.0384 29.956
RightLeg  120.781 35.8109 -27.4146
RightFoot  -41.8566 5.02116 18.9374
RightToes  5.82077e-011 -3.18055e-015 -2.98177e-016
Spine  39.9611 -3.37447 6.06576
Spine1  3.70958 -2.29419 7.56632
HEad  -15.5675 -3.26362 7.06159
LeftShoulder1  -3.88251e-019 9.70628e-020 -3.87848e-018
LeftArm  -11.1161 -1.25713 -65.6983
LeftForeArm  22.6682 -3.87484 -5.74826
LeftHand  -14.0986 -11.4096 82.5687
RightShoulder  4.19488 9.05983 20.0811
RightArm  5.36692 20.9731 68.964
RightForeArm  7.56401 5.84289 -3.92132
RightHand  -10.9861 9.42262 -73.6918
LeftUpLeg  -45.3691 -8.1528 27.0985
LeftLeg  116.037 -10.0237 -6.32816
LeftFoot  -41.0615 -8.25644 -31.886
LeftToes  9.37148e-011 4.50685e-012 -4.11107e-011
117
root  -0.51662 18.101 -67.5277 40.7729 14.9874 -1.15867
RightUpLeg  -66.9918 -13.5674 29.7398
RightLeg  121.032 35.7925 -27.2034
RightFoot  -41.9527 5.0431 18.9548
RightToes  5.82077e-011 -3.18055e-015 -2.98177e-016
Spine  40.191 -3.65523 6.20069
Spine1  3.46789 -2.51598 7.50367
HEad  -15.5451 -3.34826 7.17069
LeftShoulder1  -3.88251e-019 9.70628e-020 -3.87848e-018
LeftArm  -11.1622 -1.34263 -65.7144
LeftForeArm  22.7795 -3.86199 -5.75767
LeftHand  -14.0889 -11.406 82.5419
RightShoulder  4.2105 9.06291 20.1697
RightArm  5.35927 20.9204 68.7868
RightForeArm  7.40575 5.98189 -3.93153
RightHand  -10.9388 9.36397 -73.6708
LeftUpLeg  -45.6727 -8.64453 26.948
LeftLeg  116.137 -10.057 -6.23128
LeftFoot  -41.0313 -8.21836 -31.7781
LeftToes  9.37148e-011 4.50685e-012 -4.11107e-011
118
root  -0.49798 18.1055 -67.5564 40.6734 15.2489 -0.907852
RightUpLeg  -67.0209 -13.9743 29.5597
RightLeg  121.251 35.7428 -26.9838
RightFoot  -41.9845 5.0012 18.7735
RightToes  5.82077e-011 -3.18055e-015 -2.98177e-016
Spine  40.4744 -3.89751 6.41099
Spine1  3.18322 -2.64594 7.39346
HEad  -15.3992 -3.49221 7.20196
LeftShoulder1  -3.88251e-019 9.70628e-020 -3.87848e-018
LeftArm  -11.2748 -1.42399 -65.823
LeftForeArm  23.0225 -3.78253 -5.75786
LeftHand  -14.1073 -11.4243 82.5533
RightShoulder  4.24548 9.07426 20.3601
RightArm  5.338 20.8702 68.5474
RightForeArm  7.46429 6.05079 -3.93482
RightHand  -10.9345 9.3729 -73.6156
LeftUpLeg  -45.8544 -9.05223 26.8325
LeftLeg  116.21 -10.1514 -6.02198
LeftFoot  -41.0046 -8.19403 -31.7176
LeftToes  9.37148e-011 4.50685e-012 -4.11107e-011
